# xmcd CD database file
#
# Track frame offsets:
#	150
#	22269
#	52322
#	69915
#	101327
#	112337
#	130747
#	153577
#	166925
#	189520
#	211122
#	232542
#	254067
#	274305
#
# Disc length: 3862 seconds
#
# Revision: 0
# Processed by: cddbd v1.5PL3 Copyright (c) Steve Scherf et al.
# Submitted via: CDex 1.51
#
DISCID=c90f140e
DTITLE=Frits Landesbergen - Two of a kind - Frits Landesbergen meets Louis van Dijk
DYEAR=1995
DGENRE=Jazz
TTITLE0=Menuet ca. '61
TTITLE1=Stolen moments
TTITLE2=Take five
TTITLE3=In your own sweet way
TTITLE4=It's a raggy waltz
TTITLE5=Misty
TTITLE6=Way up
TTITLE7=Tricotism
TTITLE8=Alice in Wonderland
TTITLE9=Goodbye
TTITLE10=All of you
TTITLE11=Dear old Stockholm
TTITLE12=Con Alma
TTITLE13=Jubilation
EXTD=YEAR: 1995
EXTT0=
EXTT1=
EXTT2=
EXTT3=
EXTT4=
EXTT5=
EXTT6=
EXTT7=
EXTT8=
EXTT9=
EXTT10=
EXTT11=
EXTT12=
EXTT13=
PLAYORDER=
